<?xml version="1.0" encoding="UTF-8"?><svg xmlns="http://www.w3.org/2000/svg" xmlns:rdf="http://www.w3.org/1999/02/22-rdf-syntax-ns#" xmlns:xlink="http://www.w3.org/1999/xlink" xmlns:svg="http://www.w3.org/2000/svg" xmlns:sodipodi="http://sodipodi.sourceforge.net/DTD/sodipodi-0.dtd" xmlns:dc="http://purl.org/dc/elements/1.1/" xmlns:inkscape="http://www.inkscape.org/namespaces/inkscape" xmlns:cc="http://creativecommons.org/ns#" contentScriptType="text/ecmascript" zoomAndPan="magnify" contentStyleType="text/css" version="1.0" width="20" preserveAspectRatio="xMidYMid meet" viewBox="0 0 20 20" height="20"><ellipse fill="#fcffff" stroke-linejoin="round" rx="9.277204" cx="9.981412" ry="9.221442" cy="10" stroke="#000000" stroke-width="1.413184" stroke-opacity="0.983425" stroke-miterlimit="4"/>

  <metadata id="metadata_catchment">image/svg+xml</metadata>
   
  <g fill="#000000" id="svg_1" transform="translate(0,400) scale(0.10000000149011612,-0.10000000149011612) ">
   <path fill="#000000" id="svg_2" d="m-0.65433,3953.37867c0,-5.25386 0,-5.25386 2.03981,-5.25386c7.50358,0 55.22053,-1.60535 65.34673,-2.18911c14.06011,-0.80267 13.69586,-0.65673 15.95422,-7.66188c1.67556,-5.32683 1.52986,-9.48614 -0.4371,-12.25901c-2.25836,-3.21069 -3.13256,-4.01337 -9.76194,-9.04831c-6.41083,-4.88901 -8.15923,-6.71327 -10.41759,-10.43475c-3.13256,-5.18089 -1.96696,-8.17267 6.26513,-16.12643c3.13256,-2.99178 6.70223,-7.29703 7.86783,-9.48614c1.96696,-3.57554 2.18551,-4.52416 2.18551,-10.94554c0,-9.48614 -0.8742,-10.58069 -12.96736,-16.71019c-10.41759,-5.25386 -14.93431,-8.75643 -18.79538,-14.81297c-3.71537,-5.76465 -5.68232,-11.23742 -6.92078,-19.11821c-2.54976,-16.49128 0,-37.0689 6.11943,-49.98464c4.58957,-9.63208 15.58997,-23.49643 21.92794,-27.72871c1.52986,-0.94861 3.27826,-2.33505 5.60947,-4.30525c0.4371,-0.36485 1.52986,-0.87564 2.47691,-1.16752c0.94705,-0.29188 2.18551,-1.02158 2.76831,-1.53238c0.50995,-0.58376 1.60271,-1.02158 2.40406,-1.02158c0.7285,0 1.38416,-0.29188 1.38416,-0.7297c0,-0.51079 10.78185,-0.7297 30.96138,-0.7297l30.96138,0l0,24.37207l0,24.44504l-5.82802,0.51079c-3.20541,0.21891 -5.82802,0.7297 -5.82802,1.02158c0,0.36485 -2.25836,0.80267 -5.09952,1.09455c-2.76831,0.29188 -5.09952,0.80267 -5.09952,1.09455c0,0.29188 -1.82126,0.80267 -4.00677,1.09455c-2.18551,0.21891 -4.00677,0.7297 -4.00677,1.09455c0,0.29188 -1.60271,0.80267 -3.64252,1.09455c-1.96696,0.29188 -3.64252,0.80267 -3.64252,1.09455c0,0.36485 -1.31131,0.80267 -2.91401,1.09455c-1.60271,0.29188 -2.91401,0.80267 -2.91401,1.09455c0,0.36485 -1.1656,0.87564 -2.54976,1.16752c-1.38416,0.21891 -2.54976,0.7297 -2.54976,1.02158c0,0.29188 -0.80135,0.80267 -1.82126,1.02158c-1.0199,0.29188 -1.82126,0.80267 -1.82126,1.16752c0,0.43782 -0.4371,0.7297 -0.94705,0.7297c-0.5828,0 -1.67556,0.58376 -2.54976,1.31347c-0.80135,0.65673 -2.18551,1.75129 -3.05971,2.33505c-3.64252,2.48099 -7.28503,6.42138 -9.54339,10.58069c-2.33121,4.08634 -2.47691,4.81604 -2.47691,10.94554c0,9.26723 1.60271,12.33198 12.23885,23.05861c8.88774,8.90237 12.38455,13.4995 14.35151,18.82633c4.22532,11.23742 1.60271,18.31554 -10.12619,26.999c-6.70223,5.03495 -8.96059,8.46455 -9.03344,14.01029c0,4.88901 1.45701,7.66188 7.43073,13.71841c2.69546,2.77287 4.00677,4.81604 4.80812,7.58891c1.31131,4.45119 0.8742,6.05653 -3.27826,14.30217l-2.25836,4.59713l6.41083,-0.36485c6.55653,-0.36485 24.69625,-2.18911 34.4582,-3.35663c5.46377,-0.7297 21.19944,-2.55396 31.32563,-3.72148c6.04658,-0.65673 18.57683,-2.55396 24.76911,-3.64851c2.18551,-0.43782 6.11943,-1.09455 8.74204,-1.45941c2.62261,-0.43782 5.31807,-0.94861 6.04658,-1.16752c1.09275,-0.36485 1.23846,0.21891 1.23846,5.10792c0,6.6403 1.60271,5.83762 -18.21258,8.90237c-14.64291,2.18911 -22.7293,3.28366 -48.80971,6.1295c-3.78822,0.43782 -9.54339,1.09455 -12.7488,1.45941c-3.20541,0.36485 -8.96059,0.87564 -12.7488,1.09455c-3.78822,0.21891 -8.23208,0.7297 -9.83479,1.16752c-4.29817,1.02158 -44.36584,2.84584 -73.72451,3.35663l-25.71616,0.43782l0,-5.18089z" stroke="null"/>
  </g>
</svg>