<?xml version="1.0" encoding="UTF-8"?><svg xmlns="http://www.w3.org/2000/svg" xmlns:rdf="http://www.w3.org/1999/02/22-rdf-syntax-ns#" xmlns:xlink="http://www.w3.org/1999/xlink" xmlns:svg="http://www.w3.org/2000/svg" xmlns:sodipodi="http://sodipodi.sourceforge.net/DTD/sodipodi-0.dtd" xmlns:dc="http://purl.org/dc/elements/1.1/" xmlns:inkscape="http://www.inkscape.org/namespaces/inkscape" xmlns:cc="http://creativecommons.org/ns#" contentScriptType="text/ecmascript" zoomAndPan="magnify" contentStyleType="text/css" version="1.0" width="20" preserveAspectRatio="xMidYMid meet" viewBox="0 0 20 20" height="20"><ellipse fill="#fcffff" stroke-linejoin="round" rx="9.277204" cx="9.981412" ry="9.221442" cy="10" stroke="#000000" stroke-width="1.413184" stroke-opacity="0.983425" stroke-miterlimit="4"/>

   <metadata id="metadata_dam">image/svg+xml</metadata>
  
  <path fill="#000000" inkscape:connector-curvature="0" d="m 16.766933,12.077554 c 0,0.2761 -0.2239,0.5 -0.5,0.5 v 0 c -0.259,0.0219 -0.4994,0.1439 -0.67,0.34 -0.2714,0.2887 -0.6175,0.4964 -1,0.6 -0.6115,0.1816 -1.2734,0.0424 -1.76,-0.37 l -0.39,-0.35 c -0.2976,-0.3038 -0.7851,-0.3087 -1.0889,-0.0111 -0.0037,0.0037 -0.0074,0.0074 -0.0111,0.0111 -0.14,0.12 -0.27,0.25 -0.42,0.37 -0.7278,0.5784 -1.7662998,0.5489 -2.4599998,-0.07 l -0.34,-0.33 -0.1,-0.06 0.3,1.22 0.49,2 c 0.0829,0.2634 -0.0634,0.5441 -0.3267,0.6271 -0.0528,0.0166 -0.108,0.0243 -0.1633,0.0229 h -4 c -0.2761,0 -0.5,-0.2239 -0.5,-0.5 V 4.0775535 c 0,-0.2761 0.2239,-0.5 0.5,-0.5 h 1.1 c 0.2346,-0.0011 0.4384,0.1611 0.49,0.39 l 0.91,3.67 v 0.14 c 0.6569,-0.314 1.4361,-0.2205 2,0.24 0.16,0.13 0.31,0.28 0.47,0.41 0.2847,0.2546 0.7152998,0.2546 0.9999998,0 0.16,-0.13 0.31,-0.28 0.47,-0.41 0.7076,-0.5968 1.7424,-0.5968 2.45,0 0.15,0.13 0.29,0.27 0.44,0.39 0.2847,0.2546 0.7153,0.2546 1,0 l 0.47,-0.41 c 0.3163,-0.2672 0.7159,-0.4157 1.13,-0.42 v 0 c 0.2761,0 0.5,0.2239 0.5,0.5 0,0.2761 -0.2239,0.5 -0.5,0.5 v 0 c -0.259,0.0219 -0.4994,0.1439 -0.67,0.34 -0.2714,0.2887 -0.6175,0.4964 -1,0.6 -0.6115,0.1816 -1.2734,0.0424 -1.76,-0.37 l -0.33,-0.34 c -0.2976,-0.3038 -0.7851,-0.3087 -1.0889,-0.0111 -0.0037,0.0037 -0.0074,0.0074 -0.0111,0.0111 -0.14,0.12 -0.27,0.25 -0.42,0.37 -0.7278,0.5784 -1.7662998,0.5489 -2.4599998,-0.07 l -0.39,-0.34 c -0.2847,-0.2546 -0.7153,-0.2546 -1,0 l -0.06,0.05 0.69,2.7600005 c 0.3926,0.029 0.7665,0.1793 1.07,0.43 0.16,0.13 0.31,0.28 0.47,0.41 0.2847,0.2546 0.7152998,0.2546 0.9999998,0 0.16,-0.13 0.31,-0.28 0.47,-0.41 0.7076,-0.5968 1.7424,-0.5968 2.45,0 0.15,0.13 0.29,0.27 0.44,0.39 0.2847,0.2546 0.7153,0.2546 1,0 l 0.47,-0.41 c 0.3177,-0.2636 0.7172,-0.4085 1.13,-0.41 v 0 c 0.2761,-0.0055 0.5044,0.2138 0.5099,0.4899 1e-4,0.0034 1e-4,0.0067 1e-4,0.0101 z" id="path3730"/>
</svg>