<?xml version="1.0" encoding="UTF-8"?><svg xmlns="http://www.w3.org/2000/svg" xmlns:rdf="http://www.w3.org/1999/02/22-rdf-syntax-ns#" xmlns:xlink="http://www.w3.org/1999/xlink" xmlns:svg="http://www.w3.org/2000/svg" xmlns:sodipodi="http://sodipodi.sourceforge.net/DTD/sodipodi-0.dtd" xmlns:dc="http://purl.org/dc/elements/1.1/" xmlns:inkscape="http://www.inkscape.org/namespaces/inkscape" xmlns:cc="http://creativecommons.org/ns#" contentScriptType="text/ecmascript" zoomAndPan="magnify" contentStyleType="text/css" version="1.0" width="20" preserveAspectRatio="xMidYMid meet" viewBox="0 0 20 20" height="20"><ellipse fill="#fcffff" stroke-linejoin="round" rx="9.277204" cx="9.981412" ry="9.221442" cy="10" stroke="#000000" stroke-width="1.413184" stroke-opacity="0.983425" stroke-miterlimit="4"/>

   <metadata id="metadata_hydro_gauge">image/svg+xml</metadata>
 <g fill="none" stroke-miterlimit="4" id="g4383" stroke-width="16" transform="matrix(-0.07408311210176806,0,0,0.059298119808194785,74.65750136473295,-17.886472406979124) ">
   <path stroke-linecap="round" stroke-dashoffset="0" fill="#000000" fill-rule="nonzero" stroke-linejoin="round" d="m806.262,496.95323c44.35768,31.11709 85.827,-39.86813 136.3706,-1.01016" id="path4377" stroke="#000000" stroke-width="16" clip-rule="nonzero" stroke-miterlimit="4"/>
   <path stroke-linecap="round" stroke-dashoffset="0" fill="#000000" fill-rule="nonzero" stroke-linejoin="round" id="path4379" d="m806.262,531.29845c44.35768,31.11709 85.827,-39.86813 136.3706,-1.01016" stroke="#000000" stroke-width="16" clip-rule="nonzero" stroke-miterlimit="4"/>
   <path stroke-linecap="round" stroke-dashoffset="0" fill="#000000" fill-rule="nonzero" stroke-linejoin="round" d="m806.262,565.64361c44.35768,31.11709 85.827,-39.86813 136.3706,-1.01016" id="path4381" stroke="#000000" stroke-width="16" clip-rule="nonzero" stroke-miterlimit="4"/>
  </g>
  <path fill="#000000" d="m9.46764,2.15399l1.19664,0l0.29916,1.51252l0.51067,0.17823l1.58346,-0.86062l0.80983,0.6824l-1.02133,1.33429l0.21151,0.43031l1.79497,0.25208l0,1.00835l-1.79497,0.25208l-0.21151,0.43031l1.02133,1.33429l-0.80983,0.6824l-1.58346,-0.86062l-0.51067,0.17823l-0.29916,1.51252l-1.19664,0l-0.29916,-1.51252l-0.51067,-0.17823l-1.58346,0.86062l-0.80983,-0.6824l1.02133,-1.33429l-0.21151,-0.43031l-1.79497,-0.25208l0,-1.00835l1.79497,-0.25208l0.21151,-0.43031l-1.02133,-1.33429l0.80983,-0.6824l1.58346,0.86062l0.51067,-0.17823l0.29916,-1.51252zm0.59832,2.52086a1.79497,1.51252 0 0 0 0,3.02503a1.79497,1.51252 0 0 0 0,-3.02503" id="svg_1"/>  
</svg>