<?xml version="1.0" encoding="UTF-8"?><svg xmlns="http://www.w3.org/2000/svg" xmlns:rdf="http://www.w3.org/1999/02/22-rdf-syntax-ns#" xmlns:xlink="http://www.w3.org/1999/xlink" xmlns:svg="http://www.w3.org/2000/svg" xmlns:sodipodi="http://sodipodi.sourceforge.net/DTD/sodipodi-0.dtd" xmlns:dc="http://purl.org/dc/elements/1.1/" xmlns:inkscape="http://www.inkscape.org/namespaces/inkscape" xmlns:cc="http://creativecommons.org/ns#" contentScriptType="text/ecmascript" zoomAndPan="magnify" contentStyleType="text/css" version="1.0" width="20" preserveAspectRatio="xMidYMid meet" viewBox="0 0 20 20" height="20"><ellipse fill="#fcffff" stroke-linejoin="round" rx="9.277204" cx="9.981412" ry="9.221442" cy="10" stroke="#000000" stroke-width="1.413184" stroke-opacity="0.983425" stroke-miterlimit="4"/>

   <metadata id="metadata_hydro_gauge">image/svg+xml</metadata>
  
 <g fill="none" stroke-miterlimit="4" id="g4383" stroke-width="16" transform="matrix(-0.07408311210176806,0,0,0.059298119808194785,74.65750136473295,-17.886472406979124) ">
   <path stroke-linecap="round" stroke-dashoffset="0" fill="none" fill-rule="nonzero" stroke-linejoin="round" d="m806.262,496.95323c44.35768,31.11709 85.827,-39.86813 136.3706,-1.01016" id="path4377" stroke="#000000" stroke-width="16" clip-rule="nonzero" stroke-miterlimit="4"/>
   <path stroke-linecap="round" stroke-dashoffset="0" fill="none" fill-rule="nonzero" stroke-linejoin="round" id="path4379" d="m806.262,531.29845c44.35768,31.11709 85.827,-39.86813 136.3706,-1.01016" stroke="#000000" stroke-width="16" clip-rule="nonzero" stroke-miterlimit="4"/>
   <path stroke-linecap="round" stroke-dashoffset="0" fill="none" fill-rule="nonzero" stroke-linejoin="round" d="m806.262,565.64361c44.35768,31.11709 85.827,-39.86813 136.3706,-1.01016" id="path4381" stroke="#000000" stroke-width="16" clip-rule="nonzero" stroke-miterlimit="4"/>
  </g>
  <path fill="black" id="svg_1" d="m6.8407,6.44721l0.90449,0.90602c0.58896,-0.58994 1.40208,-0.95593 2.29955,-0.95593s1.71061,0.36599 2.29955,0.95593l0.90449,-0.90602c-0.82018,-0.82156 -1.9527,-1.32959 -3.20405,-1.32959s-2.38387,0.50803 -3.20405,1.32959l0.00001,0zm3.20405,-4.2492c-2.05619,0 -3.91755,0.83499 -5.26472,2.18443l0.90576,0.90729c1.11656,-1.11909 2.65857,-1.81204 4.35894,-1.81204s3.24238,0.69295 4.35894,1.81204l0.90576,-0.90729c-1.34716,-1.34943 -3.20852,-2.18443 -5.26471,-2.18443l0.00003,0zm0,5.58136c-0.5289,0 -0.95815,0.42998 -0.95815,0.95977s0.42925,0.95977 0.95815,0.95977s0.95815,-0.42997 0.95815,-0.95977s-0.42925,-0.95977 -0.95815,-0.95977z" stroke="#000000"/>
</svg>