<?xml version="1.0" encoding="UTF-8"?><svg xmlns="http://www.w3.org/2000/svg" xmlns:rdf="http://www.w3.org/1999/02/22-rdf-syntax-ns#" xmlns:xlink="http://www.w3.org/1999/xlink" xmlns:svg="http://www.w3.org/2000/svg" xmlns:sodipodi="http://sodipodi.sourceforge.net/DTD/sodipodi-0.dtd" xmlns:dc="http://purl.org/dc/elements/1.1/" xmlns:inkscape="http://www.inkscape.org/namespaces/inkscape" xmlns:cc="http://creativecommons.org/ns#" contentScriptType="text/ecmascript" zoomAndPan="magnify" contentStyleType="text/css" version="1.0" width="20" preserveAspectRatio="xMidYMid meet" viewBox="0 0 20 20" height="20"><ellipse fill="#fcffff" stroke-linejoin="round" rx="9.277204" cx="9.981412" ry="9.221442" cy="10" stroke="#000000" stroke-width="1.413184" stroke-opacity="0.983425" stroke-miterlimit="4"/>

   <metadata id="metadata_pluvio">image/svg+xml</metadata>
  
  <path fill="#000000" d="m10.67656,9.60885l0,5.29551q0,0.94954 -0.73382,1.64343t-1.73799,0.69389t-1.73799,-0.69389t-0.73382,-1.64343q0,-0.23738 0.18346,-0.41086t0.43449,-0.17348t0.43449,0.17348t0.18346,0.41086q0,0.45651 0.37657,0.81258t0.85933,0.35608t0.85933,-0.35608t0.37657,-0.81258l0,-5.29551q0.31863,-0.10043 0.61795,-0.10043t0.61795,0.10043zm7.41541,0.24651q0,0.11869 -0.09173,0.20543t-0.21725,0.08674q-0.10621,0 -0.22207,-0.0913q-0.47312,-0.41999 -0.89796,-0.62999t-0.98485,-0.21q-0.65657,0 -1.2359,0.33782t-0.99452,0.88563q-0.06759,0.0913 -0.16897,0.25564t-0.14,0.21912q-0.10621,0.15521 -0.27036,0.15521q-0.1738,0 -0.28001,-0.15521q-0.03862,-0.05478 -0.14,-0.21912t-0.16897,-0.25564q-0.41519,-0.54781 -0.98969,-0.88563t-1.23107,-0.33782t-1.23107,0.33782t-0.98969,0.88563q-0.06759,0.0913 -0.16897,0.25564t-0.14,0.21912q-0.10621,0.15521 -0.28001,0.15521q-0.16415,0 -0.27036,-0.15521q-0.03862,-0.05478 -0.14,-0.21912t-0.16897,-0.25564q-0.41519,-0.54781 -0.99452,-0.88563t-1.2359,-0.33782q-0.56001,0 -0.98485,0.21t-0.89796,0.62999q-0.11586,0.0913 -0.22207,0.0913q-0.12552,0 -0.21725,-0.08674t-0.09173,-0.20543q0,-0.04565 0.00965,-0.06392q0.43449,-1.67083 1.66557,-2.9171t2.87733,-1.86712t3.4808,-0.62085q1.35177,0 2.65043,0.36521t2.38007,1.03627t1.87799,1.70734t1.11521,2.29624q0.00965,0.01826 0.00965,0.06392l0.00002,0zm-7.41541,-6.63764l0,0.89476q-0.40553,-0.01826 -0.61795,-0.01826t-0.61795,0.01826l0,-0.89476q0,-0.23738 0.18346,-0.41086t0.43449,-0.17348t0.43449,0.17348t0.18346,0.41086z" id="svg_1"/>

</svg>