<?xml version="1.0" encoding="UTF-8"?><svg xmlns="http://www.w3.org/2000/svg" xmlns:rdf="http://www.w3.org/1999/02/22-rdf-syntax-ns#" xmlns:xlink="http://www.w3.org/1999/xlink" xmlns:svg="http://www.w3.org/2000/svg" xmlns:sodipodi="http://sodipodi.sourceforge.net/DTD/sodipodi-0.dtd" xmlns:dc="http://purl.org/dc/elements/1.1/" xmlns:inkscape="http://www.inkscape.org/namespaces/inkscape" xmlns:cc="http://creativecommons.org/ns#" contentScriptType="text/ecmascript" zoomAndPan="magnify" contentStyleType="text/css" version="1.0" width="20" preserveAspectRatio="xMidYMid meet" viewBox="0 0 20 20" height="20"><ellipse fill="#fcffff" stroke-linejoin="round" rx="9.277204" cx="9.981412" ry="9.221442" cy="10" stroke="#000000" stroke-width="1.413184" stroke-opacity="0.983425" stroke-miterlimit="4"/>

   <metadata id="metadata_thermometer">image/svg+xml</metadata>

   <path fill="#000000" d="m12.11204,14.07842a2.4037,2.16671 0 1 1 -2.84074,-2.13126l0,-4.9598l0.87407,0l0,4.9598c1.11881,0.18555 1.96667,1.06917 1.96667,2.13126zm1.52963,0a3.93333,3.54553 0 1 1 -5.68148,-3.17679l0,-7.45979a1.74815,1.57578 0 1 1 3.4963,0l0,7.4594a3.93333,3.54553 0 0 1 2.18519,3.17718l-0.00001,0zm-4.80741,-2.64338a3.05926,2.75763 0 1 0 1.74815,0l0,-7.9932a0.87407,0.7879 0 0 0 -1.74815,0l0,7.9932zm-1.31111,-16.66003" id="svg_1" stroke="null"/>
  
</svg>