<?xml version="1.0" encoding="UTF-8"?><svg xmlns="http://www.w3.org/2000/svg" xmlns:rdf="http://www.w3.org/1999/02/22-rdf-syntax-ns#" xmlns:xlink="http://www.w3.org/1999/xlink" xmlns:svg="http://www.w3.org/2000/svg" xmlns:sodipodi="http://sodipodi.sourceforge.net/DTD/sodipodi-0.dtd" xmlns:dc="http://purl.org/dc/elements/1.1/" xmlns:inkscape="http://www.inkscape.org/namespaces/inkscape" xmlns:cc="http://creativecommons.org/ns#" contentScriptType="text/ecmascript" zoomAndPan="magnify" contentStyleType="text/css" version="1.0" width="20" preserveAspectRatio="xMidYMid meet" viewBox="0 0 20 20" height="20"><ellipse fill="#fcffff" stroke-linejoin="round" rx="9.277204" cx="9.981412" ry="9.221442" cy="10" stroke="#000000" stroke-width="1.413184" stroke-opacity="0.983425" stroke-miterlimit="4"/>

  <metadata id="metadata_catchment">image/svg+xml</metadata>
   
  <g fill="#000000" id="svg_1" transform="translate(0,324) scale(0.10000000149011612,-0.10000000149011612) ">
   <path id="svg_2" d="m-1.1711,3174.97459c0,-3.58052 0.19915,-5.07782 0.64725,-5.14292c0.29873,0 1.74259,-0.2604 3.08687,-0.651c1.39407,-0.3255 3.73412,-0.8463 5.22777,-1.23691c3.88349,-0.9114 8.41422,-2.27851 14.4386,-4.23152c2.88772,-0.9765 6.12396,-1.95301 7.2193,-2.27851c1.84217,-0.4557 5.37713,-1.69261 14.68754,-5.14292c2.04132,-0.7812 4.13243,-1.69261 4.58052,-2.01811c0.49788,-0.3906 1.24471,-0.651 1.64301,-0.651c1.04555,0 11.50109,-4.55702 16.43013,-7.16103c0.54767,-0.2604 1.6928,-0.8463 2.58899,-1.30201c2.09111,-1.0416 1.34428,-2.08321 -2.34005,-3.25501c-1.49365,-0.4557 -3.98306,-1.36711 -5.47671,-2.01811c-1.49365,-0.5859 -3.63454,-1.36711 -4.72989,-1.56241c-1.09534,-0.2604 -2.19068,-0.7161 -2.48941,-0.9765c-0.24894,-0.1953 -1.49365,-0.8463 -2.73836,-1.30201c-1.24471,-0.4557 -2.43963,-1.1067 -2.73836,-1.30201c-0.24894,-0.2604 -2.19068,-1.23691 -4.232,-2.14831c-6.12396,-2.73421 -21.25959,-11.84825 -22.40472,-13.54086c-0.14936,-0.1953 -1.14513,-1.0416 -2.24047,-1.88791c-1.09534,-0.8463 -2.09111,-1.69261 -2.24047,-1.95301c-0.14936,-0.1953 -1.14513,-1.1067 -2.24047,-2.01811c-3.43539,-2.99461 -8.71295,-9.17914 -8.71295,-10.28585c0,-0.3906 -0.19915,-0.7161 -0.44809,-0.7161c-0.19915,0 -1.04555,-1.30201 -1.84217,-2.92951c-0.74682,-1.62751 -1.59322,-2.92951 -1.79238,-2.92951c-0.19915,0 -0.39831,-0.5859 -0.39831,-1.30201c0,-0.7161 -0.19915,-1.30201 -0.44809,-1.30201c-0.19915,0 -0.79661,-1.69261 -1.2945,-3.71072c-0.49788,-2.08321 -1.09534,-4.10132 -1.34428,-4.55702c-0.24894,-0.4557 -0.39831,-1.43221 -0.29873,-2.27851c0.14936,-1.49731 0.29873,-1.49731 6.67163,-1.69261l6.52226,-0.1953l0.29873,3.45032c0.19915,1.88791 0.54767,3.51542 0.8464,3.64562c0.24894,0.1302 0.49788,0.9114 0.49788,1.69261c0,0.7812 0.44809,1.82281 0.99577,2.34361c0.54767,0.5208 0.99577,1.30201 0.99577,1.75771c0,0.4557 0.24894,0.8463 0.49788,0.8463c0.29873,0 0.49788,0.4557 0.49788,0.9765c0,0.5859 0.34852,1.17181 0.74682,1.36711c0.39831,0.2604 0.74682,0.7812 0.74682,1.30201c0,0.5208 0.24894,0.9114 0.49788,0.9114c0.29873,0 1.44386,1.30201 2.58899,2.92951c1.14513,1.62751 2.29026,2.92951 2.48941,2.92951c0.24894,0 1.04555,0.7161 1.79238,1.62751c0.74682,0.9114 2.83793,2.73421 4.72989,4.10132c1.84217,1.30201 3.33581,2.60401 3.33581,2.86441c0,0.2604 0.44809,0.5208 0.94598,0.5208c0.54767,0 1.04555,0.1953 1.14513,0.5208c0.54767,1.62751 18.57103,11.39255 26.03927,14.06166c1.64301,0.5859 4.87925,1.82281 7.2193,2.73421c2.34005,0.9114 5.22777,2.08321 6.47248,2.53891c2.04132,0.7812 7.86655,2.47381 14.93648,4.29662c1.49365,0.3906 3.28603,0.9765 3.98306,1.30201c0.69704,0.2604 2.93751,0.8463 4.97883,1.30201c2.04132,0.3906 4.72989,0.9765 5.97459,1.30201c2.34005,0.5208 13.94072,2.73421 20.41319,3.84092c2.04132,0.3255 7.11972,1.1067 11.20236,1.62751c4.13243,0.5859 9.60914,1.30201 12.19813,1.62751c7.26909,1.0416 33.15899,2.60401 41.92173,2.60401l7.86655,0l0,4.88252l0,4.88252l-4.58052,0c-9.90787,-0.0651 -35.34967,-1.69261 -48.44399,-3.18991c-8.41422,-0.9765 -24.99371,-3.25501 -28.62826,-3.97112c-1.79238,-0.3255 -5.02862,-0.9765 -7.2193,-1.36711c-4.82946,-0.9114 -7.76697,-1.56241 -12.69601,-2.79931c-2.04132,-0.5859 -5.5265,-1.36711 -7.71718,-1.75771l-3.98306,-0.7812l-4.87925,2.73421c-2.63878,1.49731 -7.16951,3.71072 -10.00744,4.94762c-5.12819,2.21341 -8.61337,3.84092 -10.50533,4.88252c-0.89619,0.5208 -13.19389,5.14292 -20.16425,7.55163c-3.68433,1.30201 -28.08059,8.72344 -30.86873,9.43954c-1.24471,0.2604 -4.08264,0.9114 -6.32311,1.43221l-4.13243,0.9114l0,-5.14292z" stroke="null"/>
   <path id="svg_3" d="m96.31434,3096.46364c-11.79982,-15.36367 -14.83691,-19.72539 -14.83691,-21.02739c0,-3.45032 3.43539,-5.14292 5.22777,-2.53891c0.49788,0.7161 1.09534,1.30201 1.34428,1.30201c0.19915,0 0.39831,-4.94762 0.39831,-11.06705l0,-11.06705l-5.22777,0l-5.22777,0l0,-4.23152l0,-4.23152l31.56577,0c29.7236,0 31.61555,0.0651 32.66111,1.17181c1.34428,1.43221 1.49365,4.36172 0.29873,5.85903c-0.44809,0.5859 -1.99153,1.23691 -3.43539,1.43221l-2.58899,0.3255l-0.14936,10.09054c-0.14936,11.71805 -0.04979,12.49926 1.54344,10.48115c1.6928,-2.01811 4.13243,-1.82281 4.97883,0.4557c0.39831,0.9765 0.59746,2.21341 0.44809,2.73421c-0.09958,0.5208 -2.5392,4.10132 -5.37713,7.87714l-5.17798,6.90063l0,11.39255c0,10.22075 -0.09958,11.52275 -0.89619,12.43416c-1.24471,1.49731 -2.83793,1.36711 -4.08264,-0.3255c-0.8464,-1.23691 -0.99577,-2.27851 -0.99577,-8.13754c0,-3.71072 -0.14936,-6.70533 -0.39831,-6.70533c-0.19915,0 -3.13666,3.64562 -6.57205,8.13754c-4.63031,6.05433 -6.52226,8.13754 -7.46824,8.13754c-0.94598,0 -4.53073,-4.29662 -16.03182,-19.39989zm25.69075,-2.14831l8.76274,-11.78315l0,-14.84287c0,-11.97845 -0.14936,-14.97307 -0.69704,-15.55897c-0.44809,-0.4557 -2.04132,-0.7161 -4.13243,-0.5859l-3.3856,0.1953l-0.14936,10.09054c-0.09958,8.13754 -0.29873,10.22075 -0.94598,11.19725c-0.69704,1.0416 -1.74259,1.17181 -9.11125,1.17181c-7.11972,0 -8.46401,-0.1302 -9.01168,-1.0416c-0.49788,-0.7812 -0.74682,-4.03622 -0.94598,-11.26235l-0.24894,-10.15565l-3.73412,0l-3.73412,0l-0.14936,15.62407l-0.09958,15.55897l8.81252,11.58785c4.87925,6.37983 9.11125,11.58785 9.40998,11.58785c0.34852,0 4.53073,-5.33822 9.3602,-11.78315zm-5.67586,-34.76355l0,-7.48653l-3.98306,0l-3.98306,0l0,7.03083c0,3.90602 0.14936,7.29123 0.34852,7.48653c0.14936,0.2604 1.94174,0.4557 3.98306,0.4557l3.63454,0l0,-7.48653z" stroke="null"/>
  </g>
</svg>